# Blender 4.3.2
# www.blender.org
mtllib platform.mtl
o Cube.049
v 2.501345 0.049236 0.644695
v 1.524320 0.024066 1.132558
v 1.524320 0.267997 1.145143
v 2.501345 0.293168 0.657280
v 1.524320 0.024066 1.132558
v 0.303038 0.024066 1.132558
v 0.303038 0.267998 1.145143
v 1.524320 0.267997 1.145143
v 0.303038 0.024066 1.132558
v -0.918243 0.024066 1.132558
v -0.918243 0.267998 1.145143
v 0.303038 0.267998 1.145143
v -0.918243 0.024066 1.132558
v -2.139525 0.024066 1.132557
v -2.139525 0.267998 1.145142
v -0.918243 0.267998 1.145143
v -0.918243 0.393849 -1.294176
v 0.303039 0.149917 -1.306761
v 0.303039 0.393849 -1.294176
v -0.918243 0.149918 -1.306761
v -2.139524 0.393850 -1.294176
v -0.918243 0.149918 -1.306761
v -0.918243 0.393849 -1.294176
v -2.139524 0.149918 -1.306761
v 1.524320 0.393849 -1.294176
v 2.745602 0.137332 -1.062829
v 2.745602 0.381264 -1.050243
v 1.524320 0.149917 -1.306761
v 0.303039 0.393849 -1.294176
v 1.524320 0.149917 -1.306761
v 1.524320 0.393849 -1.294176
v 0.303039 0.149917 -1.306761
v 2.745602 0.137332 -1.062829
v 2.257089 0.086991 -0.087101
v 2.257089 0.330923 -0.074516
v 2.745602 0.381264 -1.050243
v 2.257089 0.086991 -0.087101
v 2.501345 0.049236 0.644695
v 2.501345 0.293168 0.657280
v 2.257089 0.330923 -0.074516
v -2.139525 0.267998 1.145142
v -2.139524 0.086992 -0.087102
v -2.139524 0.330924 -0.074517
v -2.139525 0.024066 1.132557
v -2.139524 0.330924 -0.074517
v -2.139524 0.149918 -1.306761
v -2.139524 0.393850 -1.294176
v -2.139524 0.086992 -0.087102
v 0.303038 0.267998 1.145143
v 0.303038 0.330923 -0.074516
v 1.524320 0.330923 -0.074516
v 1.524320 0.267997 1.145143
v 0.303038 0.330923 -0.074516
v 0.303039 0.393849 -1.294176
v 1.524320 0.393849 -1.294176
v 1.524320 0.330923 -0.074516
v 1.524320 0.267997 1.145143
v 1.524320 0.330923 -0.074516
v 2.257089 0.330923 -0.074516
v 2.501345 0.293168 0.657280
v 1.524320 0.330923 -0.074516
v 1.524320 0.393849 -1.294176
v 2.745602 0.381264 -1.050243
v 2.257089 0.330923 -0.074516
v -2.139525 0.267998 1.145142
v -2.139524 0.330924 -0.074517
v -0.918243 0.330924 -0.074517
v -0.918243 0.267998 1.145143
v -2.139524 0.330924 -0.074517
v -2.139524 0.393850 -1.294176
v -0.918243 0.393849 -1.294176
v -0.918243 0.330924 -0.074517
v -0.918243 0.267998 1.145143
v -0.918243 0.330924 -0.074517
v 0.303038 0.330923 -0.074516
v 0.303038 0.267998 1.145143
v -0.918243 0.330924 -0.074517
v -0.918243 0.393849 -1.294176
v 0.303039 0.393849 -1.294176
v 0.303038 0.330923 -0.074516
v -0.918243 0.086992 -0.087102
v -2.139525 0.024066 1.132557
v -0.918243 0.024066 1.132558
v -2.139524 0.086992 -0.087102
v -0.918243 0.149918 -1.306761
v -2.139524 0.086992 -0.087102
v -0.918243 0.086992 -0.087102
v -2.139524 0.149918 -1.306761
v 0.303038 0.086992 -0.087102
v -0.918243 0.024066 1.132558
v 0.303038 0.024066 1.132558
v -0.918243 0.086992 -0.087102
v 0.303039 0.149917 -1.306761
v -0.918243 0.086992 -0.087102
v 0.303038 0.086992 -0.087102
v -0.918243 0.149918 -1.306761
v 1.524320 0.086991 -0.087101
v 0.303038 0.024066 1.132558
v 1.524320 0.024066 1.132558
v 0.303038 0.086992 -0.087102
v 1.524320 0.149917 -1.306761
v 0.303038 0.086992 -0.087102
v 1.524320 0.086991 -0.087101
v 0.303039 0.149917 -1.306761
v 2.257089 0.086991 -0.087101
v 1.524320 0.024066 1.132558
v 2.501345 0.049236 0.644695
v 1.524320 0.086991 -0.087101
v 2.745602 0.137332 -1.062829
v 1.524320 0.086991 -0.087101
v 2.257089 0.086991 -0.087101
v 1.524320 0.149917 -1.306761
vn 0.4472 -0.0461 0.8932
vn -0.0000 -0.0515 0.9987
vn -0.0000 0.0515 -0.9987
vn 0.1961 0.0505 -0.9793
vn 0.8944 -0.0230 0.4466
vn 0.9487 0.0163 -0.3158
vn -1.0000 -0.0000 -0.0000
vn -0.0000 0.9987 0.0515
vn -0.0000 -0.9987 -0.0515
vt 7.155418 0.600000
vt 7.155418 0.400000
vt 6.260991 0.400000
vt 6.260991 0.600000
vt 8.000000 0.600000
vt 8.000000 0.400000
vt 7.000000 0.400000
vt 7.000000 0.600000
vt 13.000000 0.600000
vt 13.000000 0.400000
vt 12.000000 0.400000
vt 12.000000 0.600000
vt 18.000000 0.600000
vt 18.000000 0.400000
vt 17.000000 0.400000
vt 17.000000 0.600000
vt -12.000000 0.600000
vt -12.000000 0.400000
vt -13.000000 0.600000
vt -13.000000 0.400000
vt -17.000000 0.600000
vt -17.000000 0.400000
vt -18.000000 0.600000
vt -18.000000 0.400000
vt -1.843492 0.600000
vt -1.843492 0.400000
vt -2.863296 0.600000
vt -2.863296 0.400000
vt -7.000000 0.600000
vt -7.000000 0.400000
vt -8.000000 0.600000
vt -8.000000 0.400000
vt 3.577709 0.600000
vt 3.577709 0.400000
vt 2.683281 0.400000
vt 2.683281 0.600000
vt 6.008327 0.600000
vt 6.008327 0.400000
vt 5.375872 0.400000
vt 5.375872 0.600000
vt -2.000000 0.600000
vt -2.000000 0.400000
vt -3.000000 0.600000
vt -3.000000 0.400000
vt -7.000000 -7.000000
vt -7.000000 -8.000000
vt -8.000000 -8.000000
vt -8.000000 -7.000000
vt -2.000000 -7.000000
vt -2.000000 -8.000000
vt -3.000000 -8.000000
vt -3.000000 -7.000000
vt -7.000000 -2.800000
vt -7.000000 -3.400000
vt -8.000000 -3.400000
vt -7.600000 -2.600000
vt -2.200000 -2.000000
vt -2.000000 -3.000000
vt -3.000000 -3.000000
vt -3.000000 -2.400000
vt -7.000000 -17.000000
vt -7.000000 -18.000000
vt -8.000000 -18.000000
vt -8.000000 -17.000000
vt -2.000000 -17.000000
vt -2.000000 -18.000000
vt -3.000000 -18.000000
vt -3.000000 -17.000000
vt -7.000000 -12.000000
vt -7.000000 -13.000000
vt -8.000000 -13.000000
vt -8.000000 -12.000000
vt -2.000000 -12.000000
vt -2.000000 -13.000000
vt -3.000000 -13.000000
vt -3.000000 -12.000000
vt 8.000000 -17.000000
vt 8.000000 -18.000000
vt 7.000000 -17.000000
vt 7.000000 -18.000000
vt 3.000000 -17.000000
vt 3.000000 -18.000000
vt 2.000000 -17.000000
vt 2.000000 -18.000000
vt 8.000000 -12.000000
vt 8.000000 -13.000000
vt 7.000000 -12.000000
vt 7.000000 -13.000000
vt 3.000000 -12.000000
vt 3.000000 -13.000000
vt 2.000000 -12.000000
vt 2.000000 -13.000000
vt 8.000000 -7.000000
vt 8.000000 -8.000000
vt 7.000000 -7.000000
vt 7.000000 -8.000000
vt 3.000000 -7.000000
vt 3.000000 -8.000000
vt 2.000000 -7.000000
vt 2.000000 -8.000000
vt 7.600000 -2.600000
vt 8.000000 -3.400000
vt 7.000000 -2.800000
vt 7.000000 -3.400000
vt 3.000000 -2.400000
vt 3.000000 -3.000000
vt 2.200000 -2.000000
vt 2.000000 -3.000000
s 1
usemtl Metal_Decoration_13.001
f 3/1/1 2/2/1 1/3/1
f 3/1/1 1/3/1 4/4/1
f 7/5/2 6/6/2 5/7/2
f 7/5/2 5/7/2 8/8/2
f 11/9/2 10/10/2 9/11/2
f 11/9/2 9/11/2 12/12/2
f 15/13/2 14/14/2 13/15/2
f 15/13/2 13/15/2 16/16/2
f 19/17/3 18/18/3 17/19/3
f 18/18/3 20/20/3 17/19/3
f 23/21/3 22/22/3 21/23/3
f 22/22/3 24/24/3 21/23/3
f 27/25/4 26/26/4 25/27/4
f 26/26/4 28/28/4 25/27/4
f 31/29/3 30/30/3 29/31/3
f 30/30/3 32/32/3 29/31/3
f 35/33/5 34/34/5 33/35/5
f 35/33/5 33/35/5 36/36/5
f 39/37/6 38/38/6 37/39/6
f 39/37/6 37/39/6 40/40/6
f 43/29/7 42/30/7 41/31/7
f 42/30/7 44/32/7 41/31/7
f 47/41/7 46/42/7 45/43/7
f 46/42/7 48/44/7 45/43/7
f 51/45/8 50/46/8 49/47/8
f 51/45/8 49/47/8 52/48/8
f 55/49/8 54/50/8 53/51/8
f 55/49/8 53/51/8 56/52/8
f 59/53/8 58/54/8 57/55/8
f 59/53/8 57/55/8 60/56/8
f 63/57/8 62/58/8 61/59/8
f 63/57/8 61/59/8 64/60/8
f 67/61/8 66/62/8 65/63/8
f 67/61/8 65/63/8 68/64/8
f 71/65/8 70/66/8 69/67/8
f 71/65/8 69/67/8 72/68/8
f 75/69/8 74/70/8 73/71/8
f 75/69/8 73/71/8 76/72/8
f 79/73/8 78/74/8 77/75/8
f 79/73/8 77/75/8 80/76/8
f 83/77/9 82/78/9 81/79/9
f 82/78/9 84/80/9 81/79/9
f 87/81/9 86/82/9 85/83/9
f 86/82/9 88/84/9 85/83/9
f 91/85/9 90/86/9 89/87/9
f 90/86/9 92/88/9 89/87/9
f 95/89/9 94/90/9 93/91/9
f 94/90/9 96/92/9 93/91/9
f 99/93/9 98/94/9 97/95/9
f 98/94/9 100/96/9 97/95/9
f 103/97/9 102/98/9 101/99/9
f 102/98/9 104/100/9 101/99/9
f 107/101/9 106/102/9 105/103/9
f 106/102/9 108/104/9 105/103/9
f 111/105/9 110/106/9 109/107/9
f 110/106/9 112/108/9 109/107/9
