# Blender 4.3.2
# www.blender.org
mtllib platform_thin.mtl
o Cube.040
v 2.382460 0.260135 0.884640
v 1.397058 0.260135 1.356027
v 1.397058 0.335695 1.356027
v 2.382460 0.335695 0.884640
v 1.397058 0.260135 1.356027
v 0.175963 0.260135 1.334713
v 0.175963 0.335695 1.334713
v 1.397058 0.335695 1.356027
v 0.175963 0.260135 1.334713
v -1.045133 0.260135 1.313398
v -1.045133 0.335695 1.313398
v 0.175963 0.335695 1.334713
v -1.045133 0.260135 1.313398
v -2.266228 0.260135 1.292084
v -2.266228 0.335695 1.292084
v -1.045133 0.335695 1.313398
v -1.002504 0.335695 -1.128792
v 0.218591 0.260135 -1.107478
v 0.218591 0.335695 -1.107478
v -1.002504 0.260135 -1.128792
v -2.223599 0.335695 -1.150107
v -1.002504 0.260135 -1.128792
v -1.002504 0.335695 -1.128792
v -2.223599 0.260135 -1.150107
v 1.439687 0.335695 -1.086164
v 2.656519 0.260135 -0.820630
v 2.656519 0.335695 -0.820630
v 1.439687 0.260135 -1.086164
v 0.218591 0.335695 -1.107478
v 1.439687 0.260135 -1.086164
v 1.439687 0.335695 -1.086164
v 0.218591 0.260135 -1.107478
v 2.656519 0.260135 -0.820630
v 2.151030 0.260135 0.147720
v 2.151030 0.335695 0.147720
v 2.656519 0.335695 -0.820630
v 2.151030 0.260135 0.147720
v 2.382460 0.260135 0.884640
v 2.382460 0.335695 0.884640
v 2.151030 0.335695 0.147720
v -2.266228 0.335695 1.292084
v -2.244914 0.260135 0.070989
v -2.244914 0.335695 0.070989
v -2.266228 0.260135 1.292084
v -2.244914 0.335695 0.070989
v -2.223599 0.260135 -1.150107
v -2.223599 0.335695 -1.150107
v -2.244914 0.260135 0.070989
v 0.175963 0.335695 1.334713
v 0.197277 0.335695 0.113617
v 1.418372 0.335695 0.134932
v 1.397058 0.335695 1.356027
v 0.197277 0.335695 0.113617
v 0.218591 0.335695 -1.107478
v 1.439687 0.335695 -1.086164
v 1.418372 0.335695 0.134932
v 1.397058 0.335695 1.356027
v 1.418372 0.335695 0.134932
v 2.151030 0.335695 0.147720
v 2.382460 0.335695 0.884640
v 1.418372 0.335695 0.134932
v 1.439687 0.335695 -1.086164
v 2.656519 0.335695 -0.820630
v 2.151030 0.335695 0.147720
v -2.266228 0.335695 1.292084
v -2.244914 0.335695 0.070989
v -1.023818 0.335695 0.092303
v -1.045133 0.335695 1.313398
v -2.244914 0.335695 0.070989
v -2.223599 0.335695 -1.150107
v -1.002504 0.335695 -1.128792
v -1.023818 0.335695 0.092303
v -1.045133 0.335695 1.313398
v -1.023818 0.335695 0.092303
v 0.197277 0.335695 0.113617
v 0.175963 0.335695 1.334713
v -1.023818 0.335695 0.092303
v -1.002504 0.335695 -1.128792
v 0.218591 0.335695 -1.107478
v 0.197277 0.335695 0.113617
v -1.023818 0.260135 0.092303
v -2.266228 0.260135 1.292084
v -1.045133 0.260135 1.313398
v -2.244914 0.260135 0.070989
v -1.002504 0.260135 -1.128792
v -2.244914 0.260135 0.070989
v -1.023818 0.260135 0.092303
v -2.223599 0.260135 -1.150107
v 0.197277 0.260135 0.113617
v -1.045133 0.260135 1.313398
v 0.175963 0.260135 1.334713
v -1.023818 0.260135 0.092303
v 0.218591 0.260135 -1.107478
v -1.023818 0.260135 0.092303
v 0.197277 0.260135 0.113617
v -1.002504 0.260135 -1.128792
v 1.418372 0.260135 0.134932
v 0.175963 0.260135 1.334713
v 1.397058 0.260135 1.356027
v 0.197277 0.260135 0.113617
v 1.439687 0.260135 -1.086164
v 0.197277 0.260135 0.113617
v 1.418372 0.260135 0.134932
v 0.218591 0.260135 -1.107478
v 2.151030 0.260135 0.147720
v 1.397058 0.260135 1.356027
v 2.382460 0.260135 0.884640
v 1.418372 0.260135 0.134932
v 2.656519 0.260135 -0.820630
v 1.418372 0.260135 0.134932
v 2.151030 0.260135 0.147720
v 1.439687 0.260135 -1.086164
vn 0.4315 -0.0000 0.9021
vn -0.0175 -0.0000 0.9998
vn 0.0175 -0.0000 -0.9998
vn 0.2132 -0.0000 -0.9770
vn 0.8865 -0.0000 0.4628
vn 0.9541 -0.0000 -0.2996
vn -0.9998 -0.0000 -0.0175
vn -0.0000 1.0000 -0.0000
vn -0.0000 -1.0000 -0.0000
vt 0.017547 0.254023
vt 0.202096 0.058165
vt 0.023271 0.499199
vt 0.028994 0.744376
vt 0.034717 0.989552
vt 0.968906 0.500616
vt 0.974629 0.745793
vt 0.980352 0.990969
vt 0.862897 0.010122
vt 0.963183 0.255440
vt 0.486932 0.107625
vt 0.507534 0.990260
vt 0.490365 0.254731
vt 0.496088 0.499908
vt 0.501811 0.745084
s 1
usemtl Metal_Decoration_13.001
f 3/1/1 2/1/1 1/2/1
f 3/1/1 1/2/1 4/2/1
f 7/3/2 6/3/2 5/1/2
f 7/3/2 5/1/2 8/1/2
f 11/4/2 10/4/2 9/3/2
f 11/4/2 9/3/2 12/3/2
f 15/5/2 14/5/2 13/4/2
f 15/5/2 13/4/2 16/4/2
f 19/6/3 18/6/3 17/7/3
f 18/6/3 20/7/3 17/7/3
f 23/7/3 22/7/3 21/8/3
f 22/7/3 24/8/3 21/8/3
f 27/9/4 26/9/4 25/10/4
f 26/9/4 28/10/4 25/10/4
f 31/10/3 30/10/3 29/6/3
f 30/10/3 32/6/3 29/6/3
f 35/11/5 34/11/5 33/9/5
f 35/11/5 33/9/5 36/9/5
f 39/2/6 38/2/6 37/11/6
f 39/2/6 37/11/6 40/11/6
f 43/12/7 42/12/7 41/5/7
f 42/12/7 44/5/7 41/5/7
f 47/8/7 46/8/7 45/12/7
f 46/8/7 48/12/7 45/12/7
f 51/13/8 50/14/8 49/3/8
f 51/13/8 49/3/8 52/1/8
f 55/10/8 54/6/8 53/14/8
f 55/10/8 53/14/8 56/13/8
f 59/11/8 58/13/8 57/1/8
f 59/11/8 57/1/8 60/2/8
f 63/9/8 62/10/8 61/13/8
f 63/9/8 61/13/8 64/11/8
f 67/15/8 66/12/8 65/5/8
f 67/15/8 65/5/8 68/4/8
f 71/7/8 70/8/8 69/12/8
f 71/7/8 69/12/8 72/15/8
f 75/14/8 74/15/8 73/4/8
f 75/14/8 73/4/8 76/3/8
f 79/6/8 78/7/8 77/15/8
f 79/6/8 77/15/8 80/14/8
f 83/4/9 82/5/9 81/15/9
f 82/5/9 84/12/9 81/15/9
f 87/15/9 86/12/9 85/7/9
f 86/12/9 88/8/9 85/7/9
f 91/3/9 90/4/9 89/14/9
f 90/4/9 92/15/9 89/14/9
f 95/14/9 94/15/9 93/6/9
f 94/15/9 96/7/9 93/6/9
f 99/1/9 98/3/9 97/13/9
f 98/3/9 100/14/9 97/13/9
f 103/13/9 102/14/9 101/10/9
f 102/14/9 104/6/9 101/10/9
f 107/2/9 106/1/9 105/11/9
f 106/1/9 108/13/9 105/11/9
f 111/11/9 110/13/9 109/9/9
f 110/13/9 112/10/9 109/9/9
